<svg fill="none" viewBox="0 -2 23 22" class="shopee-svg-icon icon-voucher-line">
    <g filter="url(#a)">
        <mask id="b" fill="#fff">
            <path fill-rule="evenodd" clip-rule="evenodd" d="M1 2h18v2.32a1.5 1.5 0 0 0 0 2.75v.65a1.5 1.5 0 0 0 0 2.75v.65a1.5 1.5 0 0 0 0 2.75V16H1v-2.12a1.5 1.5 0 0 0 0-2.75v-.65a1.5 1.5 0 0 0 0-2.75v-.65a1.5 1.5 0 0 0 0-2.75V2z"/>
        </mask>
        <path d="M19 2h1V1h-1v1zM1 2V1H0v1h1zm18 2.32.4.92.6-.26v-.66h-1zm0 2.75h1v-.65l-.6-.26-.4.91zm0 .65.4.92.6-.26v-.66h-1zm0 2.75h1v-.65l-.6-.26-.4.91zm0 .65.4.92.6-.26v-.66h-1zm0 2.75h1v-.65l-.6-.26-.4.91zM19 16v1h1v-1h-1zM1 16H0v1h1v-1zm0-2.12-.4-.92-.6.26v.66h1zm0-2.75H0v.65l.6.26.4-.91zm0-.65-.4-.92-.6.26v.66h1zm0-2.75H0v.65l.6.26.4-.91zm0-.65-.4-.92-.6.26v.66h1zm0-2.75H0v.65l.6.26.4-.91zM19 1H1v2h18V1zm1 3.32V2h-2v2.32h2zm-.9 1.38c0-.2.12-.38.3-.46l-.8-1.83a2.5 2.5 0 0 0-1.5 2.29h2zm.3.46a.5.5 0 0 1-.3-.46h-2c0 1.03.62 1.9 1.5 2.3l.8-1.84zm.6 1.56v-.65h-2v.65h2zm-.9 1.38c0-.2.12-.38.3-.46l-.8-1.83a2.5 2.5 0 0 0-1.5 2.29h2zm.3.46a.5.5 0 0 1-.3-.46h-2c0 1.03.62 1.9 1.5 2.3l.8-1.84zm.6 1.56v-.65h-2v.65h2zm-.9 1.38c0-.2.12-.38.3-.46l-.8-1.83a2.5 2.5 0 0 0-1.5 2.29h2zm.3.46a.5.5 0 0 1-.3-.46h-2c0 1.03.62 1.9 1.5 2.3l.8-1.84zM20 16v-2.13h-2V16h2zM1 17h18v-2H1v2zm-1-3.12V16h2v-2.12H0zm1.4.91a2.5 2.5 0 0 0 1.5-2.29h-2a.5.5 0 0 1-.3.46l.8 1.83zm1.5-2.29a2.5 2.5 0 0 0-1.5-2.3l-.8 1.84c.18.08.3.26.3.46h2zM0 10.48v.65h2v-.65H0zM.9 9.1a.5.5 0 0 1-.3.46l.8 1.83A2.5 2.5 0 0 0 2.9 9.1h-2zm-.3-.46c.18.08.3.26.3.46h2a2.5 2.5 0 0 0-1.5-2.3L.6 8.65zM0 7.08v.65h2v-.65H0zM.9 5.7a.5.5 0 0 1-.3.46l.8 1.83A2.5 2.5 0 0 0 2.9 5.7h-2zm-.3-.46c.18.08.3.26.3.46h2a2.5 2.5 0 0 0-1.5-2.3L.6 5.25zM0 2v2.33h2V2H0z" mask="url(#b)"/>
    </g>
        <path clip-rule="evenodd" d="M6.49 14.18h.86v-1.6h-.86v1.6zm0-3h.86v-1.6h-.86v1.6zm0-3h.86v-1.6h-.86v1.6zm0-3h.86v-1.6h-.86v1.6z"/><defs><filter id="a" x="0" y="1" width="20" height="16" filterUnits="userSpaceOnUse" color-interpolation-filters="sRGB"><feFlood flood-opacity="0" result="BackgroundImageFix"/><feColorMatrix in="SourceAlpha" values="0 0 0 0 0 0 0 0 0 0 0 0 0 0 0 0 0 0 127 0"/><feOffset/><feGaussianBlur stdDeviation=".5"/><feColorMatrix values="0 0 0 0 0 0 0 0 0 0 0 0 0 0 0 0 0 0 0.09 0"/><feBlend in2="BackgroundImageFix" result="effect1_dropShadow"/><feBlend in="SourceGraphic" in2="effect1_dropShadow" result="shape"/></filter></defs>
</svg>